<svg version="1.1" id="fable_f" xmlns="http://www.w3.org/2000/svg" xmlns:xlink="http://www.w3.org/1999/xlink"
     aria-hidden="true" role="img" class="iconify iconify--logos"
	 viewBox="0 0 1341 1813" preserveAspectRatio="xMidYMid meet" xml:space="preserve">
<path fill="#1292FF" opacity="1.000000" stroke="none"
	d="
M621.375000,1814.000000
	C625.363464,1800.557739 629.851746,1787.154297 634.061768,1773.664185
	C640.713074,1752.351807 647.523193,1731.079468 653.624390,1709.607910
	C659.767456,1687.989014 665.259521,1666.181030 670.788086,1644.392822
	C675.006897,1627.766846 679.008423,1611.081177 682.794983,1594.351440
	C687.024841,1575.663330 691.099609,1556.935303 694.881592,1538.151855
	C699.115112,1517.125977 703.171143,1496.058228 706.870117,1474.932617
	C709.314514,1460.972534 710.847839,1446.855469 713.062805,1432.851929
	C714.790405,1421.929443 717.178528,1411.109741 718.828186,1400.177246
	C720.218994,1390.960083 720.885620,1381.635986 722.022522,1372.377686
	C723.947754,1356.699707 726.215576,1341.060425 727.913574,1325.358887
	C729.272827,1312.790161 729.859314,1300.139771 731.048401,1287.550171
	C732.170837,1275.665527 733.685974,1263.818604 734.917969,1251.943604
	C735.426514,1247.041382 735.788391,1242.114746 735.970276,1237.189941
	C736.398315,1225.600342 736.630371,1214.003784 737.028381,1202.412842
	C737.647095,1184.399048 738.546326,1166.392578 738.947266,1148.374512
	C739.486633,1124.130737 739.790405,1099.879395 739.893494,1075.630127
	C739.914185,1070.761719 738.583435,1065.887329 737.124146,1060.659912
	C727.921997,1060.262329 719.471497,1060.220581 711.020996,1060.178711
	C694.644104,1059.444824 678.267212,1058.711060 661.107117,1057.671875
	C653.086853,1056.911621 645.854858,1056.328613 638.611206,1056.041016
	C632.416565,1055.795166 626.208496,1055.888184 620.006409,1055.831299
	C609.435730,1054.828857 598.864990,1053.826416 587.791504,1052.188232
	C580.168091,1050.725830 573.047546,1049.899048 565.927002,1049.072266
	C553.799683,1046.792114 541.645630,1044.643433 529.553589,1042.189453
	C520.289429,1040.309326 511.279205,1037.610352 503.386322,1032.074951
	C496.299286,1027.104736 494.633972,1023.935364 497.570923,1015.701965
	C503.678772,998.579346 507.417572,980.837524 510.108917,962.822083
	C513.227539,941.946472 513.858704,920.936157 512.726196,900.023560
	C511.676666,880.642883 508.806061,861.318787 505.931213,842.090271
	C502.781097,821.020996 498.523041,800.119263 495.164734,779.077942
	C494.309998,773.722656 494.557068,768.059021 495.195251,762.642761
	C495.649231,758.789673 497.921021,755.490479 502.835052,755.998718
	C515.547546,757.313477 528.258789,758.640564 540.974304,759.925415
	C548.154358,760.650879 555.344116,761.281067 562.523987,762.007812
	C563.788269,762.135803 565.025696,762.528992 566.999756,763.186890
	C577.179321,764.363647 586.634583,765.153259 596.089844,765.942871
	C606.455994,766.636597 616.822205,767.330322 627.751465,768.451538
	C639.526123,769.853027 650.737793,770.826965 662.319458,771.885620
	C663.250000,771.936829 663.810547,771.903442 664.371033,771.870056
	C664.369507,771.595215 664.367920,771.320374 664.366333,771.045532
	C663.558533,771.045532 662.750732,771.045532 661.991638,771.016968
	C662.040344,770.988403 662.098999,771.084839 662.098999,771.084839
	C661.267151,770.080994 660.557312,768.936218 659.585083,768.094543
	C645.055725,755.514954 630.509766,742.954407 615.931152,730.432068
	C599.393738,716.227295 585.278198,699.808228 571.349854,683.102478
	C558.556396,667.757874 547.602722,651.224121 537.752747,634.016174
	C530.382141,621.139771 523.714722,607.661255 518.536316,593.778564
	C511.589752,575.155640 505.574982,556.090271 500.654999,536.832947
	C495.798492,517.824280 492.647980,498.368927 489.049255,479.053619
	C486.756165,466.745880 484.825012,454.362213 483.086823,441.962769
	C482.039276,434.490143 481.830597,426.903778 480.961334,419.401367
	C479.833160,409.664337 478.300568,399.974060 477.181305,390.236145
	C476.542175,384.675629 476.544983,379.043152 475.966431,373.473450
	C474.765137,361.908844 473.343292,350.367371 472.073669,338.809601
	C471.803253,336.347809 471.698059,333.857788 471.683685,331.379822
	C471.630524,322.204163 464.530182,317.602936 458.444489,313.468262
	C447.746796,306.200165 436.414764,299.627686 424.696228,294.162170
	C410.870880,287.714142 395.933228,284.364288 380.821228,281.955505
	C360.809326,278.765686 340.628174,278.102448 320.520264,279.213257
	C301.795441,280.247711 283.184723,282.741394 264.666382,286.420197
	C240.561523,291.208801 217.136002,298.233276 193.681229,305.240021
	C184.232681,308.062683 175.075928,311.920105 165.905594,315.603455
	C149.236801,322.298523 132.473175,328.806000 116.095169,336.162170
	C101.488182,342.722900 87.285797,350.201538 73.019943,357.500031
	C57.998348,365.185181 43.079472,373.073669 28.185066,381.003601
	C22.236589,384.170624 16.473650,387.686127 9.706681,390.242615
	C12.182562,386.616302 14.447903,382.822693 17.172266,379.393799
	C26.853056,367.209625 36.539001,355.023102 46.523651,343.089050
	C52.757343,335.638275 59.333519,328.447266 66.106857,321.480804
	C77.370354,309.896118 88.498940,298.125671 100.457489,287.286438
	C112.930038,275.981354 125.983032,265.244324 139.401718,255.076447
	C151.851578,245.642700 164.698685,236.575806 178.136429,228.644394
	C193.664948,219.478958 209.552597,210.578964 226.165741,203.689026
	C243.297699,196.583939 261.336151,191.471741 279.275665,186.578995
	C290.052368,183.639816 301.343292,181.874863 312.500671,181.204163
	C330.707031,180.109695 349.011688,179.716400 367.238129,180.260193
	C377.238403,180.558533 387.276093,182.897034 397.093811,185.186584
	C409.353485,188.045639 421.404144,191.801056 433.633850,195.194122
	C433.223511,187.560776 429.933685,180.388641 424.132721,174.817261
	C415.592468,166.614975 406.798126,158.594772 397.484283,151.298340
	C380.515869,138.005417 363.012756,125.397575 345.872986,112.320076
	C332.239868,101.918137 318.710419,91.373596 305.332581,80.645920
	C294.850128,72.240074 284.659760,63.469418 274.373322,54.820736
	C273.412476,54.012863 272.694366,52.916264 272.396851,51.043182
	C277.269470,53.192871 282.102539,55.438023 287.021423,57.476055
	C310.856781,67.351746 334.617859,77.417564 358.602814,86.917152
	C372.424774,92.391533 386.493042,97.331680 400.685089,101.760254
	C416.004272,106.540550 431.455597,111.078682 447.106384,114.569687
	C466.938599,118.993370 486.975861,122.584389 507.031647,125.884529
	C517.704895,127.640785 528.585388,128.437576 539.405640,128.917206
	C550.782776,129.421524 562.199585,129.030121 574.118103,129.030121
	C572.781921,115.246284 572.149414,100.809563 569.819946,86.652084
	C566.766602,68.095810 560.153625,50.636063 548.718750,35.424507
	C541.549622,25.887569 532.550415,18.339207 521.838318,12.930351
	C521.480225,12.749533 521.268494,12.278832 520.563232,11.433452
	C521.944885,11.364691 522.979126,10.983106 523.608643,11.331939
	C531.563354,15.740177 539.268738,20.641783 547.414062,24.653198
	C561.092834,31.389755 574.969116,37.740959 588.898804,43.948032
	C602.075867,49.819748 615.261230,55.738060 628.739807,60.853603
	C654.051025,70.459969 679.744019,78.931114 706.425476,84.020187
	C722.913025,87.164940 739.498047,89.462090 756.323486,88.958801
	C771.906616,88.492668 787.110168,86.099068 801.391846,79.286316
	C812.088501,74.183723 823.602051,72.109512 835.304504,71.021744
	C840.387451,70.549263 845.489807,70.197594 850.591187,70.027267
	C864.958801,69.547554 879.130920,71.192284 893.228088,73.917892
	C906.319214,76.449013 919.617493,78.048828 932.566772,81.138969
	C950.059021,85.313194 967.418335,90.145905 984.632202,95.363930
	C1018.250305,105.554520 1051.662598,116.424553 1085.288452,126.588989
	C1105.457642,132.685745 1125.762939,138.407578 1146.205811,143.500381
	C1162.734375,147.618057 1179.484619,150.985519 1196.279053,153.850479
	C1208.526001,155.939697 1220.978638,157.060715 1233.387939,157.894958
	C1245.783813,158.728348 1258.308350,159.642838 1270.653564,158.774628
	C1289.939209,157.418365 1309.091064,154.598557 1326.968262,146.224808
	C1329.356567,145.106094 1333.321289,145.174500 1335.588013,146.434509
	C1340.102539,148.943909 1338.422974,154.147369 1337.765137,157.810120
	C1335.298706,171.542755 1331.599365,185.056732 1329.216309,198.800781
	C1326.720947,213.191864 1327.409302,227.480759 1332.868164,241.402161
	C1333.935303,244.123840 1333.566528,248.456680 1332.058716,250.962357
	C1324.710205,263.174042 1313.776123,271.927032 1301.951416,279.474518
	C1285.234131,290.144806 1268.810425,301.451569 1251.300781,310.659729
	C1228.970459,322.403015 1205.827148,332.650574 1182.758911,342.924652
	C1165.171509,350.757629 1147.266357,357.915619 1129.299561,364.847626
	C1110.563721,372.076263 1091.727417,379.103424 1072.674072,385.433441
	C1051.593628,392.436829 1030.239502,398.622528 1008.962097,405.023285
	C996.241211,408.850006 983.507446,412.668579 970.656616,416.019836
	C953.275391,420.552490 935.878601,425.126984 918.299011,428.769012
	C900.618713,432.431885 882.749023,435.263245 864.880798,437.908203
	C852.408997,439.754303 839.825928,441.059143 827.245483,441.907806
	C811.413696,442.975800 795.528198,443.932037 779.677063,443.778168
	C769.606934,443.680420 759.547424,441.548340 749.502502,440.186584
	C744.533142,439.512878 739.607300,438.518280 734.325256,437.611053
	C733.586243,444.051575 732.329895,450.948822 732.103699,457.879669
	C731.723328,469.533600 732.265625,481.216705 731.927490,492.873230
	C731.523254,506.805023 733.991089,520.355957 737.472473,533.638367
	C740.663818,545.813965 744.327209,558.041870 749.479492,569.482605
	C755.898743,583.736572 764.607239,596.784912 775.030457,608.668213
	C787.142212,622.476562 801.124878,633.990356 816.456421,643.881165
	C832.327637,654.120117 848.948547,662.927185 866.927734,669.068359
	C876.250916,672.252869 885.140198,676.768127 894.542603,679.646240
	C908.479858,683.912537 922.589172,687.758301 936.823364,690.879639
	C958.558289,695.645874 980.390137,700.060974 1002.318481,703.822693
	C1018.251831,706.555908 1034.423462,707.875183 1050.458618,710.048218
	C1060.961304,711.471497 1071.388428,713.451660 1081.890381,714.881653
	C1089.047119,715.856201 1096.283325,716.231018 1103.468018,717.018921
	C1111.928101,717.946716 1120.375122,718.997314 1128.820068,720.057312
	C1136.263184,720.991638 1143.696777,722.002502 1151.132324,722.997070
	C1158.578857,723.993042 1166.045166,724.869812 1173.462524,726.051208
	C1185.193237,727.919678 1196.955933,729.678772 1208.586914,732.061646
	C1227.348389,735.905334 1246.097290,739.880798 1264.684692,744.475586
	C1274.045532,746.789551 1283.405151,749.809692 1292.112305,753.900269
	C1304.576050,759.755676 1311.963501,770.878357 1318.309814,782.700623
	C1326.054443,797.127502 1330.927246,812.611206 1333.817627,828.548218
	C1337.649780,849.679504 1339.164307,871.128906 1337.873291,892.610413
	C1337.287720,902.352661 1335.766357,912.095825 1333.900635,921.689087
	C1331.705566,932.975525 1329.456787,944.359985 1325.830322,955.234741
	C1320.021973,972.652588 1311.675537,988.868469 1298.426025,1002.069824
	C1288.962402,1011.499084 1277.615112,1017.669556 1264.755127,1020.921631
	C1253.281006,1023.823059 1241.762573,1026.651001 1230.133789,1028.812012
	C1216.839722,1031.282593 1203.393311,1032.925659 1190.031616,1035.044800
	C1185.565063,1035.753174 1181.155518,1036.819702 1175.993652,1037.566895
	C1166.177856,1038.553101 1157.088135,1039.695068 1147.998413,1040.837036
	C1142.274414,1041.777466 1136.550293,1042.717896 1130.083496,1043.541870
	C1124.908691,1043.643066 1120.443237,1043.595337 1116.053955,1044.150391
	C1111.350708,1044.745117 1106.719482,1045.907227 1102.056763,1046.821777
	C1093.032715,1047.551270 1084.008789,1048.280762 1074.067749,1049.014404
	C1066.773438,1049.368896 1060.384033,1049.576416 1054.022705,1050.115479
	C1049.038452,1050.537842 1044.089233,1051.370605 1039.124390,1052.020996
	C1038.603149,1052.333130 1038.095093,1052.892212 1037.558594,1052.921265
	C1024.015137,1053.654785 1010.468689,1054.332642 995.996765,1055.050781
	C991.262817,1055.045776 987.430603,1054.725464 983.653137,1055.048096
	C979.097961,1055.437012 974.589233,1056.371338 970.060364,1057.069580
	C969.430603,1073.293823 967.094299,1089.255371 962.544128,1104.857300
	C958.733337,1117.923950 955.155334,1131.071899 950.868164,1143.982788
	C945.417358,1160.397827 939.562744,1176.687500 933.495728,1192.886597
	C927.878723,1207.883789 921.916565,1222.758179 915.803528,1237.561401
	C909.951965,1251.731445 903.811096,1265.784912 897.616699,1279.809814
	C888.239502,1301.040771 878.973572,1322.327393 869.169495,1343.361694
	C857.437866,1368.531250 845.268311,1393.498169 833.136841,1418.479248
	C825.432312,1434.344238 817.465332,1450.082031 809.591614,1465.864624
	C801.047729,1482.990356 792.634338,1500.183594 783.866821,1517.194092
	C776.598083,1531.296509 768.814819,1545.132812 761.414062,1559.168457
	C755.437439,1570.503296 749.813110,1582.024414 743.806641,1593.343018
	C738.427124,1603.480103 732.665894,1613.413940 727.206543,1623.509521
	C721.085754,1634.828369 715.207092,1646.278320 709.059814,1657.582520
	C695.774719,1682.012085 682.416443,1706.402100 669.027405,1730.774902
	C660.439758,1746.407471 651.732971,1761.974487 643.100342,1777.582275
	C636.482117,1789.547974 629.896301,1801.531372 623.648071,1813.753418
	C623.250000,1814.000000 622.500000,1814.000000 621.375000,1814.000000
z"/>
<path fill="#1292FF" opacity="1.000000" stroke="none"
	d="
M620.456543,1055.903564
	C626.208496,1055.888184 632.416565,1055.795166 638.611206,1056.041016
	C645.854858,1056.328613 653.086853,1056.911621 660.665955,1057.601562
	C647.640869,1057.216553 634.273804,1056.596191 620.456543,1055.903564
z"/>
<path fill="#1292FF" opacity="1.000000" stroke="none"
	d="
M661.949402,771.800903
	C650.737793,770.826965 639.526123,769.853027 628.173828,768.523315
	C633.349670,768.776062 638.656006,769.504578 643.985596,769.960144
	C649.703796,770.448914 655.444031,770.681030 661.636841,771.055054
	C662.098999,771.084839 662.040344,770.988403 661.984863,771.205688
	C661.929321,771.422913 661.949402,771.800903 661.949402,771.800903
z"/>
<path fill="#1292FF" opacity="1.000000" stroke="none"
	d="
M1039.580078,1052.014648
	C1044.089233,1051.370605 1049.038452,1050.537842 1054.022705,1050.115479
	C1060.384033,1049.576416 1066.773438,1049.368896 1073.616455,1049.046143
	C1069.978760,1049.714233 1065.895996,1050.622192 1061.767822,1050.935913
	C1054.538452,1051.485474 1047.281372,1051.670410 1039.580078,1052.014648
z"/>
<path fill="#1292FF" opacity="1.000000" stroke="none"
	d="
M595.869690,765.580933
	C586.634583,765.153259 577.179321,764.363647 567.384155,763.369995
	C576.579346,763.850342 586.114441,764.534607 595.869690,765.580933
z"/>
<path fill="#1292FF" opacity="1.000000" stroke="none"
	d="
M1102.484131,1046.894531
	C1106.719482,1045.907227 1111.350708,1044.745117 1116.053955,1044.150391
	C1120.443237,1043.595337 1124.908691,1043.643066 1129.685059,1043.630127
	C1120.990112,1044.879028 1111.950806,1045.923218 1102.484131,1046.894531
z"/>
<path fill="#1292FF" opacity="1.000000" stroke="none"
	d="
M1148.447754,1040.910400
	C1157.088135,1039.695068 1166.177856,1038.553101 1175.591553,1037.616699
	C1166.909302,1038.876221 1157.903198,1039.930054 1148.447754,1040.910400
z"/>
<path fill="#1292FF" opacity="1.000000" stroke="none"
	d="
M970.519409,1057.041748
	C974.589233,1056.371338 979.097961,1055.437012 983.653137,1055.048096
	C987.430603,1054.725464 991.262817,1055.045776 995.534790,1055.114014
	C987.658630,1055.768921 979.318604,1056.391357 970.519409,1057.041748
z"/>
<path fill="#1292FF" opacity="1.000000" stroke="none"
	d="
M566.138916,1049.424072
	C573.047546,1049.899048 580.168091,1050.725830 587.563110,1051.812012
	C580.675293,1051.306274 573.513123,1050.541016 566.138916,1049.424072
z"/>
<path fill="#1292FF" opacity="1.000000" stroke="none"
	d="
M711.259277,1060.529785
	C719.471497,1060.220581 727.921997,1060.262329 736.696899,1060.569946
	C728.513428,1060.850830 720.005493,1060.865967 711.259277,1060.529785
z"/>
</svg>
